<svg width="120" height="19" viewBox="0 0 120 19" fill="none" xmlns="http://www.w3.org/2000/svg">
<path d="M4.617 5.006H7.239V7.286H4.693V15H1.729V7.286H0.152V5.006H1.729V4.55C1.729 3.38467 2.071 2.46 2.755 1.776C3.45167 1.092 4.427 0.749999 5.681 0.749999C6.12433 0.749999 6.54233 0.800666 6.935 0.901999C7.34033 0.990666 7.676 1.12367 7.942 1.301L7.163 3.448C6.821 3.20733 6.422 3.087 5.966 3.087C5.06667 3.087 4.617 3.581 4.617 4.569V5.006ZM13.0681 6.127C13.4228 5.633 13.8978 5.25933 14.4931 5.006C15.1011 4.75267 15.7978 4.626 16.5831 4.626V7.362C16.2538 7.33667 16.0321 7.324 15.9181 7.324C15.0695 7.324 14.4045 7.56467 13.9231 8.046C13.4418 8.51467 13.2011 9.224 13.2011 10.174V15H10.2371V4.778H13.0681V6.127ZM22.4129 4.626C23.9962 4.626 25.2122 5.006 26.0609 5.766C26.9095 6.51333 27.3339 7.647 27.3339 9.167V15H24.5599V13.727C24.0025 14.677 22.9639 15.152 21.4439 15.152C20.6585 15.152 19.9745 15.019 19.3919 14.753C18.8219 14.487 18.3849 14.1197 18.0809 13.651C17.7769 13.1823 17.6249 12.6503 17.6249 12.055C17.6249 11.105 17.9795 10.3577 18.6889 9.813C19.4109 9.26833 20.5192 8.996 22.0139 8.996H24.3699C24.3699 8.35 24.1735 7.856 23.7809 7.514C23.3882 7.15933 22.7992 6.982 22.0139 6.982C21.4692 6.982 20.9309 7.07067 20.3989 7.248C19.8795 7.41267 19.4362 7.64067 19.0689 7.932L18.0049 5.861C18.5622 5.46833 19.2272 5.16433 19.9999 4.949C20.7852 4.73367 21.5895 4.626 22.4129 4.626ZM22.1849 13.157C22.6915 13.157 23.1412 13.043 23.5339 12.815C23.9265 12.5743 24.2052 12.226 24.3699 11.77V10.725H22.3369C21.1209 10.725 20.5129 11.124 20.5129 11.922C20.5129 12.302 20.6585 12.606 20.9499 12.834C21.2539 13.0493 21.6655 13.157 22.1849 13.157ZM43.1074 4.626C44.3868 4.626 45.4001 5.006 46.1474 5.766C46.9074 6.51333 47.2874 7.64067 47.2874 9.148V15H44.3234V9.604C44.3234 8.79333 44.1524 8.19167 43.8104 7.799C43.4811 7.39367 43.0061 7.191 42.3854 7.191C41.6888 7.191 41.1378 7.419 40.7324 7.875C40.3271 8.31833 40.1244 8.98333 40.1244 9.87V15H37.1604V9.604C37.1604 7.99533 36.5144 7.191 35.2224 7.191C34.5384 7.191 33.9938 7.419 33.5884 7.875C33.1831 8.31833 32.9804 8.98333 32.9804 9.87V15H30.0164V4.778H32.8474V5.956C33.2274 5.52533 33.6898 5.196 34.2344 4.968C34.7918 4.74 35.3998 4.626 36.0584 4.626C36.7804 4.626 37.4328 4.77167 38.0154 5.063C38.5981 5.34167 39.0668 5.75333 39.4214 6.298C39.8394 5.766 40.3651 5.35433 40.9984 5.063C41.6444 4.77167 42.3474 4.626 43.1074 4.626ZM60.0685 9.927C60.0685 9.965 60.0495 10.231 60.0115 10.725H52.2785C52.4178 11.3583 52.7472 11.8587 53.2665 12.226C53.7858 12.5933 54.4318 12.777 55.2045 12.777C55.7365 12.777 56.2052 12.701 56.6105 12.549C57.0285 12.3843 57.4148 12.131 57.7695 11.789L59.3465 13.499C58.3838 14.601 56.9778 15.152 55.1285 15.152C53.9758 15.152 52.9562 14.9303 52.0695 14.487C51.1828 14.031 50.4988 13.404 50.0175 12.606C49.5362 11.808 49.2955 10.9023 49.2955 9.889C49.2955 8.88833 49.5298 7.989 49.9985 7.191C50.4798 6.38033 51.1322 5.75333 51.9555 5.31C52.7915 4.854 53.7225 4.626 54.7485 4.626C55.7492 4.626 56.6548 4.84133 57.4655 5.272C58.2762 5.70267 58.9095 6.32333 59.3655 7.134C59.8342 7.932 60.0685 8.863 60.0685 9.927ZM54.7675 6.868C54.0962 6.868 53.5325 7.058 53.0765 7.438C52.6205 7.818 52.3418 8.33733 52.2405 8.996H57.2755C57.1742 8.35 56.8955 7.837 56.4395 7.457C55.9835 7.06433 55.4262 6.868 54.7675 6.868ZM63.1628 15.152C62.6435 15.152 62.2065 14.9747 61.8518 14.62C61.4972 14.2653 61.3198 13.822 61.3198 13.29C61.3198 12.7453 61.4972 12.3083 61.8518 11.979C62.2065 11.637 62.6435 11.466 63.1628 11.466C63.6822 11.466 64.1192 11.637 64.4738 11.979C64.8285 12.3083 65.0058 12.7453 65.0058 13.29C65.0058 13.822 64.8285 14.2653 64.4738 14.62C64.1192 14.9747 63.6822 15.152 63.1628 15.152ZM73.0565 4.626C74.0065 4.626 74.8678 4.84767 75.6405 5.291C76.4258 5.72167 77.0402 6.336 77.4835 7.134C77.9268 7.91933 78.1485 8.83767 78.1485 9.889C78.1485 10.9403 77.9268 11.865 77.4835 12.663C77.0402 13.4483 76.4258 14.0627 75.6405 14.506C74.8678 14.9367 74.0065 15.152 73.0565 15.152C71.7518 15.152 70.7258 14.7403 69.9785 13.917V18.686H67.0145V4.778H69.8455V5.956C70.5802 5.06933 71.6505 4.626 73.0565 4.626ZM72.5435 12.72C73.3035 12.72 73.9242 12.4667 74.4055 11.96C74.8995 11.4407 75.1465 10.7503 75.1465 9.889C75.1465 9.02767 74.8995 8.34367 74.4055 7.837C73.9242 7.31767 73.3035 7.058 72.5435 7.058C71.7835 7.058 71.1565 7.31767 70.6625 7.837C70.1812 8.34367 69.9405 9.02767 69.9405 9.889C69.9405 10.7503 70.1812 11.4407 70.6625 11.96C71.1565 12.4667 71.7835 12.72 72.5435 12.72ZM84.9966 15.152C83.92 15.152 82.951 14.9303 82.0896 14.487C81.241 14.031 80.576 13.404 80.0946 12.606C79.6133 11.808 79.3726 10.9023 79.3726 9.889C79.3726 8.87567 79.6133 7.97 80.0946 7.172C80.576 6.374 81.241 5.75333 82.0896 5.31C82.951 4.854 83.92 4.626 84.9966 4.626C86.0733 4.626 87.036 4.854 87.8846 5.31C88.7333 5.75333 89.3983 6.374 89.8796 7.172C90.361 7.97 90.6016 8.87567 90.6016 9.889C90.6016 10.9023 90.361 11.808 89.8796 12.606C89.3983 13.404 88.7333 14.031 87.8846 14.487C87.036 14.9303 86.0733 15.152 84.9966 15.152ZM84.9966 12.72C85.7566 12.72 86.3773 12.4667 86.8586 11.96C87.3526 11.4407 87.5996 10.7503 87.5996 9.889C87.5996 9.02767 87.3526 8.34367 86.8586 7.837C86.3773 7.31767 85.7566 7.058 84.9966 7.058C84.2366 7.058 83.6096 7.31767 83.1156 7.837C82.6216 8.34367 82.3746 9.02767 82.3746 9.889C82.3746 10.7503 82.6216 11.4407 83.1156 11.96C83.6096 12.4667 84.2366 12.72 84.9966 12.72ZM96.0218 15.152C95.1732 15.152 94.3435 15.0507 93.5328 14.848C92.7222 14.6327 92.0762 14.3667 91.5948 14.05L92.5828 11.922C93.0388 12.2133 93.5898 12.454 94.2358 12.644C94.8818 12.8213 95.5152 12.91 96.1358 12.91C97.3898 12.91 98.0168 12.5997 98.0168 11.979C98.0168 11.6877 97.8458 11.4787 97.5038 11.352C97.1618 11.2253 96.6362 11.1177 95.9268 11.029C95.0908 10.9023 94.4005 10.7567 93.8558 10.592C93.3112 10.4273 92.8362 10.136 92.4308 9.718C92.0382 9.3 91.8418 8.70467 91.8418 7.932C91.8418 7.286 92.0255 6.716 92.3928 6.222C92.7728 5.71533 93.3175 5.32267 94.0268 5.044C94.7488 4.76533 95.5975 4.626 96.5728 4.626C97.2948 4.626 98.0105 4.70833 98.7198 4.873C99.4418 5.025 100.037 5.24033 100.506 5.519L99.5178 7.628C98.6185 7.12133 97.6368 6.868 96.5728 6.868C95.9395 6.868 95.4645 6.95667 95.1478 7.134C94.8312 7.31133 94.6728 7.53933 94.6728 7.818C94.6728 8.13467 94.8438 8.35633 95.1858 8.483C95.5278 8.60967 96.0725 8.73 96.8198 8.844C97.6558 8.98333 98.3398 9.13533 98.8718 9.3C99.4038 9.452 99.8662 9.737 100.259 10.155C100.652 10.573 100.848 11.1557 100.848 11.903C100.848 12.5363 100.658 13.1 100.278 13.594C99.8978 14.088 99.3405 14.4743 98.6058 14.753C97.8838 15.019 97.0225 15.152 96.0218 15.152ZM109.27 14.506C108.978 14.7213 108.617 14.886 108.187 15C107.769 15.1013 107.325 15.152 106.857 15.152C105.641 15.152 104.697 14.8417 104.026 14.221C103.367 13.6003 103.038 12.6883 103.038 11.485V7.286H101.461V5.006H103.038V2.517H106.002V5.006H108.548V7.286H106.002V11.447C106.002 11.8777 106.109 12.2133 106.325 12.454C106.553 12.682 106.869 12.796 107.275 12.796C107.743 12.796 108.142 12.6693 108.472 12.416L109.27 14.506ZM114.372 15.152C113.524 15.152 112.694 15.0507 111.883 14.848C111.073 14.6327 110.427 14.3667 109.945 14.05L110.933 11.922C111.389 12.2133 111.94 12.454 112.586 12.644C113.232 12.8213 113.866 12.91 114.486 12.91C115.74 12.91 116.367 12.5997 116.367 11.979C116.367 11.6877 116.196 11.4787 115.854 11.352C115.512 11.2253 114.987 11.1177 114.277 11.029C113.441 10.9023 112.751 10.7567 112.206 10.592C111.662 10.4273 111.187 10.136 110.781 9.718C110.389 9.3 110.192 8.70467 110.192 7.932C110.192 7.286 110.376 6.716 110.743 6.222C111.123 5.71533 111.668 5.32267 112.377 5.044C113.099 4.76533 113.948 4.626 114.923 4.626C115.645 4.626 116.361 4.70833 117.07 4.873C117.792 5.025 118.388 5.24033 118.856 5.519L117.868 7.628C116.969 7.12133 115.987 6.868 114.923 6.868C114.29 6.868 113.815 6.95667 113.498 7.134C113.182 7.31133 113.023 7.53933 113.023 7.818C113.023 8.13467 113.194 8.35633 113.536 8.483C113.878 8.60967 114.423 8.73 115.17 8.844C116.006 8.98333 116.69 9.13533 117.222 9.3C117.754 9.452 118.217 9.737 118.609 10.155C119.002 10.573 119.198 11.1557 119.198 11.903C119.198 12.5363 119.008 13.1 118.628 13.594C118.248 14.088 117.691 14.4743 116.956 14.753C116.234 15.019 115.373 15.152 114.372 15.152Z" fill="#5F3473"/>
</svg>
